HIERARCHY
ROOT mixamorig:Hips
{
	OFFSET 0.000000 103.991501 0.000000
	CHANNELS 6 Xposition Yposition Zposition Xrotation Yrotation Zrotation
	JOINT mixamorig:Spine
	{
		OFFSET 0.000000 10.181602 0.131500
		CHANNELS 6 Xposition Yposition Zposition Xrotation Yrotation Zrotation
		JOINT mixamorig:Spine1
		{
			OFFSET 0.000000 10.083504 -1.000800
			CHANNELS 6 Xposition Yposition Zposition Xrotation Yrotation Zrotation
			JOINT mixamorig:Spine2
			{
				OFFSET 0.000000 9.100006 -1.373400
				CHANNELS 6 Xposition Yposition Zposition Xrotation Yrotation Zrotation
				JOINT mixamorig:Neck
				{
					OFFSET 0.000000 16.671707 -2.516200
					CHANNELS 6 Xposition Yposition Zposition Xrotation Yrotation Zrotation
					JOINT mixamorig:Head
					{
						OFFSET 0.000000 9.617905 1.685000
						CHANNELS 6 Xposition Yposition Zposition Xrotation Yrotation Zrotation
						JOINT mixamorig:HeadTop_End
						{
							OFFSET 0.000000 17.815201 2.585000
							CHANNELS 6 Xposition Yposition Zposition Xrotation Yrotation Zrotation
							End Site
							{
								OFFSET 0.000000 13.794495 0.000000
							}
						}
						JOINT mixamorig:LeftEye
						{
							OFFSET 3.067600 6.409500 9.283600
							CHANNELS 6 Xposition Yposition Zposition Xrotation Yrotation Zrotation
							End Site
							{
								OFFSET 0.000000 13.794495 0.000000
							}
						}
						JOINT mixamorig:RightEye
						{
							OFFSET -3.067600 6.409500 9.283500
							CHANNELS 6 Xposition Yposition Zposition Xrotation Yrotation Zrotation
							End Site
							{
								OFFSET 0.000000 13.794495 0.000000
							}
						}
					}
				}
				JOINT mixamorig:LeftShoulder
				{
					OFFSET 4.570400 10.945999 -2.628000
					CHANNELS 6 Xposition Yposition Zposition Xrotation Yrotation Zrotation
					JOINT mixamorig:LeftArm
					{
						OFFSET 10.592400 -0.524597 -2.232100
						CHANNELS 6 Xposition Yposition Zposition Xrotation Yrotation Zrotation
						JOINT mixamorig:LeftForeArm
						{
							OFFSET 27.841499 0.000000 0.000000
							CHANNELS 6 Xposition Yposition Zposition Xrotation Yrotation Zrotation
							JOINT mixamorig:LeftHand
							{
								OFFSET 28.328800 0.000000 0.000000
								CHANNELS 6 Xposition Yposition Zposition Xrotation Yrotation Zrotation
								JOINT mixamorig:LeftHandThumb1
								{
									OFFSET 2.466103 -1.576218 2.681689
									CHANNELS 6 Xposition Yposition Zposition Xrotation Yrotation Zrotation
									JOINT mixamorig:LeftHandThumb2
									{
										OFFSET 3.229782 -1.864716 1.864716
										CHANNELS 6 Xposition Yposition Zposition Xrotation Yrotation Zrotation
										JOINT mixamorig:LeftHandThumb3
										{
											OFFSET 2.652611 -1.531494 1.531488
											CHANNELS 6 Xposition Yposition Zposition Xrotation Yrotation Zrotation
											JOINT mixamorig:LeftHandThumb4
											{
												OFFSET 1.954605 -1.128494 1.128493
												CHANNELS 6 Xposition Yposition Zposition Xrotation Yrotation Zrotation
												End Site
												{
													OFFSET -0.000404 2.523392 0.000683
												}
											}
										}
									}
								}
								JOINT mixamorig:LeftHandIndex1
								{
									OFFSET 9.109299 -0.518112 2.259867
									CHANNELS 6 Xposition Yposition Zposition Xrotation Yrotation Zrotation
									JOINT mixamorig:LeftHandIndex2
									{
										OFFSET 3.676399 0.000000 0.000000
										CHANNELS 6 Xposition Yposition Zposition Xrotation Yrotation Zrotation
										JOINT mixamorig:LeftHandIndex3
										{
											OFFSET 2.883102 0.000000 0.000000
											CHANNELS 6 Xposition Yposition Zposition Xrotation Yrotation Zrotation
											JOINT mixamorig:LeftHandIndex4
											{
												OFFSET 2.392700 0.000000 0.000000
												CHANNELS 6 Xposition Yposition Zposition Xrotation Yrotation Zrotation
												End Site
												{
													OFFSET 0.000000 2.392700 0.001080
												}
											}
										}
									}
								}
								JOINT mixamorig:LeftHandMiddle1
								{
									OFFSET 9.533401 0.000000 0.000000
									CHANNELS 6 Xposition Yposition Zposition Xrotation Yrotation Zrotation
									JOINT mixamorig:LeftHandMiddle2
									{
										OFFSET 3.698196 0.000000 0.000000
										CHANNELS 6 Xposition Yposition Zposition Xrotation Yrotation Zrotation
										JOINT mixamorig:LeftHandMiddle3
										{
											OFFSET 2.950897 0.000000 0.000000
											CHANNELS 6 Xposition Yposition Zposition Xrotation Yrotation Zrotation
											JOINT mixamorig:LeftHandMiddle4
											{
												OFFSET 2.833900 0.000000 0.000000
												CHANNELS 6 Xposition Yposition Zposition Xrotation Yrotation Zrotation
												End Site
												{
													OFFSET 0.000000 2.833893 0.001278
												}
											}
										}
									}
								}
								JOINT mixamorig:LeftHandRing1
								{
									OFFSET 9.104500 -0.043060 -1.865119
									CHANNELS 6 Xposition Yposition Zposition Xrotation Yrotation Zrotation
									JOINT mixamorig:LeftHandRing2
									{
										OFFSET 3.153999 0.000000 0.000000
										CHANNELS 6 Xposition Yposition Zposition Xrotation Yrotation Zrotation
										JOINT mixamorig:LeftHandRing3
										{
											OFFSET 2.937698 0.000000 0.000000
											CHANNELS 6 Xposition Yposition Zposition Xrotation Yrotation Zrotation
											JOINT mixamorig:LeftHandRing4
											{
												OFFSET 2.647499 0.000000 0.000000
												CHANNELS 6 Xposition Yposition Zposition Xrotation Yrotation Zrotation
												End Site
												{
													OFFSET 0.000000 2.647507 0.001195
												}
											}
										}
									}
								}
								JOINT mixamorig:LeftHandPinky1
								{
									OFFSET 8.077797 -0.486984 -3.806321
									CHANNELS 6 Xposition Yposition Zposition Xrotation Yrotation Zrotation
									JOINT mixamorig:LeftHandPinky2
									{
										OFFSET 3.599998 0.000000 0.000000
										CHANNELS 6 Xposition Yposition Zposition Xrotation Yrotation Zrotation
										JOINT mixamorig:LeftHandPinky3
										{
											OFFSET 2.114197 0.000000 0.000000
											CHANNELS 6 Xposition Yposition Zposition Xrotation Yrotation Zrotation
											JOINT mixamorig:LeftHandPinky4
											{
												OFFSET 1.975700 0.000000 0.000000
												CHANNELS 6 Xposition Yposition Zposition Xrotation Yrotation Zrotation
												End Site
												{
													OFFSET 0.000000 1.975693 0.000892
												}
											}
										}
									}
								}
							}
						}
					}
				}
				JOINT mixamorig:RightShoulder
				{
					OFFSET -4.570000 10.946198 -2.628000
					CHANNELS 6 Xposition Yposition Zposition Xrotation Yrotation Zrotation
					JOINT mixamorig:RightArm
					{
						OFFSET -10.592800 -0.524796 -2.232100
						CHANNELS 6 Xposition Yposition Zposition Xrotation Yrotation Zrotation
						JOINT mixamorig:RightForeArm
						{
							OFFSET -27.841499 0.000000 0.000000
							CHANNELS 6 Xposition Yposition Zposition Xrotation Yrotation Zrotation
							JOINT mixamorig:RightHand
							{
								OFFSET -28.328800 0.000000 0.000000
								CHANNELS 6 Xposition Yposition Zposition Xrotation Yrotation Zrotation
								JOINT mixamorig:RightHandPinky1
								{
									OFFSET -8.076698 -0.486725 -3.806227
									CHANNELS 6 Xposition Yposition Zposition Xrotation Yrotation Zrotation
									JOINT mixamorig:RightHandPinky2
									{
										OFFSET -3.599998 0.000000 0.000000
										CHANNELS 6 Xposition Yposition Zposition Xrotation Yrotation Zrotation
										JOINT mixamorig:RightHandPinky3
										{
											OFFSET -2.114197 0.000000 0.000000
											CHANNELS 6 Xposition Yposition Zposition Xrotation Yrotation Zrotation
											JOINT mixamorig:RightHandPinky4
											{
												OFFSET -1.975700 0.000000 0.000000
												CHANNELS 6 Xposition Yposition Zposition Xrotation Yrotation Zrotation
												End Site
												{
													OFFSET 0.000000 1.975693 0.000919
												}
											}
										}
									}
								}
								JOINT mixamorig:RightHandRing1
								{
									OFFSET -9.103600 -0.043030 -1.865120
									CHANNELS 6 Xposition Yposition Zposition Xrotation Yrotation Zrotation
									JOINT mixamorig:RightHandRing2
									{
										OFFSET -3.153999 0.000000 0.000000
										CHANNELS 6 Xposition Yposition Zposition Xrotation Yrotation Zrotation
										JOINT mixamorig:RightHandRing3
										{
											OFFSET -2.937698 0.000000 0.000000
											CHANNELS 6 Xposition Yposition Zposition Xrotation Yrotation Zrotation
											JOINT mixamorig:RightHandRing4
											{
												OFFSET -2.647499 0.000000 0.000000
												CHANNELS 6 Xposition Yposition Zposition Xrotation Yrotation Zrotation
												End Site
												{
													OFFSET 0.000000 2.647507 0.001231
												}
											}
										}
									}
								}
								JOINT mixamorig:RightHandMiddle1
								{
									OFFSET -9.532501 0.000000 0.000000
									CHANNELS 6 Xposition Yposition Zposition Xrotation Yrotation Zrotation
									JOINT mixamorig:RightHandMiddle2
									{
										OFFSET -3.698196 0.000000 0.000000
										CHANNELS 6 Xposition Yposition Zposition Xrotation Yrotation Zrotation
										JOINT mixamorig:RightHandMiddle3
										{
											OFFSET -2.950897 0.000000 0.000000
											CHANNELS 6 Xposition Yposition Zposition Xrotation Yrotation Zrotation
											JOINT mixamorig:RightHandMiddle4
											{
												OFFSET -2.833900 0.000000 0.000000
												CHANNELS 6 Xposition Yposition Zposition Xrotation Yrotation Zrotation
												End Site
												{
													OFFSET 0.000000 2.833893 0.001318
												}
											}
										}
									}
								}
								JOINT mixamorig:RightHandIndex1
								{
									OFFSET -9.108299 -0.517853 2.259859
									CHANNELS 6 Xposition Yposition Zposition Xrotation Yrotation Zrotation
									JOINT mixamorig:RightHandIndex2
									{
										OFFSET -3.676399 0.000000 0.000000
										CHANNELS 6 Xposition Yposition Zposition Xrotation Yrotation Zrotation
										JOINT mixamorig:RightHandIndex3
										{
											OFFSET -2.883102 0.000000 0.000000
											CHANNELS 6 Xposition Yposition Zposition Xrotation Yrotation Zrotation
											JOINT mixamorig:RightHandIndex4
											{
												OFFSET -2.392700 0.000000 0.000000
												CHANNELS 6 Xposition Yposition Zposition Xrotation Yrotation Zrotation
												End Site
												{
													OFFSET 0.000000 2.392700 0.001113
												}
											}
										}
									}
								}
								JOINT mixamorig:RightHandThumb1
								{
									OFFSET -2.464798 -1.573944 2.681868
									CHANNELS 6 Xposition Yposition Zposition Xrotation Yrotation Zrotation
									JOINT mixamorig:RightHandThumb2
									{
										OFFSET -3.229782 -1.864716 1.864716
										CHANNELS 6 Xposition Yposition Zposition Xrotation Yrotation Zrotation
										JOINT mixamorig:RightHandThumb3
										{
											OFFSET -2.652542 -1.531448 1.531448
											CHANNELS 6 Xposition Yposition Zposition Xrotation Yrotation Zrotation
											JOINT mixamorig:RightHandThumb4
											{
												OFFSET -1.954605 -1.128494 1.128493
												CHANNELS 6 Xposition Yposition Zposition Xrotation Yrotation Zrotation
												End Site
												{
													OFFSET 0.000412 2.523392 0.000704
												}
											}
										}
									}
								}
							}
						}
					}
				}
			}
		}
	}
	JOINT mixamorig:LeftUpLeg
	{
		OFFSET 8.207800 -6.751701 -1.599600
		CHANNELS 6 Xposition Yposition Zposition Xrotation Yrotation Zrotation
		JOINT mixamorig:LeftLeg
		{
			OFFSET 0.000000 -44.370499 0.284600
			CHANNELS 6 Xposition Yposition Zposition Xrotation Yrotation Zrotation
			JOINT mixamorig:LeftFoot
			{
				OFFSET 0.000000 -44.427898 -2.982200
				CHANNELS 6 Xposition Yposition Zposition Xrotation Yrotation Zrotation
				JOINT mixamorig:LeftToeBase
				{
					OFFSET 0.000000 -8.728700 10.710600
					CHANNELS 6 Xposition Yposition Zposition Xrotation Yrotation Zrotation
					JOINT mixamorig:LeftToe_End
					{
						OFFSET 0.000000 -0.000700 9.278099
						CHANNELS 6 Xposition Yposition Zposition Xrotation Yrotation Zrotation
						End Site
						{
							OFFSET 0.000000 9.278100 0.000000
						}
					}
				}
			}
		}
	}
	JOINT mixamorig:RightUpLeg
	{
		OFFSET -8.207800 -6.751701 -1.599600
		CHANNELS 6 Xposition Yposition Zposition Xrotation Yrotation Zrotation
		JOINT mixamorig:RightLeg
		{
			OFFSET 0.000000 -44.370499 0.286200
			CHANNELS 6 Xposition Yposition Zposition Xrotation Yrotation Zrotation
			JOINT mixamorig:RightFoot
			{
				OFFSET 0.000000 -44.427700 -2.983800
				CHANNELS 6 Xposition Yposition Zposition Xrotation Yrotation Zrotation
				JOINT mixamorig:RightToeBase
				{
					OFFSET 0.000000 -8.728700 10.710600
					CHANNELS 6 Xposition Yposition Zposition Xrotation Yrotation Zrotation
					JOINT mixamorig:RightToe_End
					{
						OFFSET 0.000000 -0.000700 9.278100
						CHANNELS 6 Xposition Yposition Zposition Xrotation Yrotation Zrotation
						End Site
						{
							OFFSET 0.000000 9.278100 0.000000
						}
					}
				}
			}
		}
	}
}
MOTION
Frames: 3
Frame Time: 0.016667
-3.799262 101.738785 1.626489 -2.835241 -1.106987 -1.170324 0.000000 10.181591 0.131500 0.544224 2.568677 1.666274 -0.000000 10.083496 -1.000800 0.221382 1.764981 0.957734 0.000000 9.100026 -1.373400 0.229455 1.791345 0.940641 -0.000000 16.671724 -2.516198 -1.936568 -0.508417 -1.136572 -0.000000 9.617908 1.684996 -11.793625 -2.231014 -4.098489 -0.000001 17.815216 2.585005 -0.000001 0.000000 -0.000000 3.067600 6.409500 9.283601 -0.000001 0.000000 -0.000000 -3.067600 6.409531 9.283504 -0.000001 0.000000 -0.000000 4.570399 10.945975 -2.627999 2.237201 -12.316507 -9.892720 10.592398 -0.524578 -2.232099 8.115492 -13.735379 -63.082623 27.841497 -0.000004 -0.000001 0.000002 -10.043774 -0.000009 28.328789 0.000000 -0.000002 -12.427359 4.029429 6.887594 2.466089 -1.576221 2.681686 6.277219 16.289412 13.440163 3.229784 -1.864707 1.864720 8.903340 12.226825 -1.301466 2.652607 -1.531483 1.531487 1.871011 3.746217 1.882186 1.954599 -1.128481 1.128496 -0.000001 0.000001 0.000003 9.109291 -0.518101 2.259868 0.141746 1.392703 -11.622249 3.676402 -0.000005 0.000000 0.083768 1.072946 -8.927917 2.883097 -0.000001 0.000000 0.020976 0.538103 -4.463576 2.392700 0.000000 0.000000 0.000000 -0.000000 0.000000 9.533389 0.000003 0.000001 0.141359 1.390813 -11.606256 3.698209 -0.000014 -0.000001 0.084067 1.074853 -8.943898 2.950907 0.000008 0.000000 0.020972 0.538103 -4.463582 2.833916 -0.000000 -0.000000 0.000000 -0.000000 -0.000000 9.104494 -0.043073 -1.865118 0.141746 1.392702 -11.622247 3.153981 -0.000001 -0.000000 0.083769 1.072947 -8.927914 2.937698 0.000002 -0.000000 0.020975 0.538104 -4.463575 2.647491 -0.000015 0.000002 -0.000001 0.000000 0.000000 8.077783 -0.486980 -3.806319 0.943697 5.367206 -11.159122 3.599979 -0.000014 0.000001 0.075357 -2.982094 -9.432465 2.114210 0.000006 0.000001 0.020972 0.538106 -4.463564 1.975700 0.000015 0.000001 -0.000000 -0.000000 0.000000 -4.569998 10.946208 -2.628000 0.918016 -0.044088 11.211424 -10.592794 -0.524776 -2.232104 22.525718 28.200123 48.830453 -27.841486 -0.000000 0.000001 0.000003 32.800638 0.000018 -28.328798 -0.000006 -0.000011 -24.220909 4.830227 -16.710544 -8.076707 -0.486713 -3.806234 0.065107 -0.951199 7.830388 -3.599994 -0.000009 -0.000008 0.180038 -1.575121 13.040333 -2.114198 -0.000007 0.000006 0.045139 -0.792685 6.518949 -1.975716 0.000003 -0.000001 -0.000003 0.000001 0.000000 -9.103602 -0.043044 -1.865124 0.065102 -0.951192 7.830390 -3.153995 -0.000021 -0.000003 0.180043 -1.575123 13.040327 -2.937699 -0.000001 -0.000005 0.045141 -0.792682 6.518950 -2.647485 -0.000001 -0.000001 -0.000000 0.000003 0.000000 -9.532508 -0.000012 -0.000004 0.065101 -0.951193 7.830390 -3.698201 0.000003 -0.000008 0.180042 -1.575124 13.040331 -2.950896 -0.000025 -0.000003 0.045141 -0.792688 6.518949 -2.833892 -0.000031 0.000000 0.000001 0.000003 -0.000001 -9.108297 -0.517853 2.259856 0.065101 -0.951193 7.830390 -3.676399 -0.000010 0.000001 0.180042 -1.575126 13.040329 -2.883093 -0.000004 0.000000 0.045139 -0.792683 6.518949 -2.392700 -0.000013 0.000000 -0.000002 0.000000 -0.000000 -2.464800 -1.573946 2.681865 7.209049 -23.606986 -7.406009 -3.229784 -1.864686 1.864720 6.867248 -11.189099 1.266686 -2.652519 -1.531456 1.531446 -0.189208 -1.164790 -1.546956 -1.954598 -1.128509 1.128494 -0.000000 0.000000 -0.000003 8.207801 -6.751712 -1.599597 -24.848898 -2.549093 2.940530 0.000001 -44.370495 0.284596 46.596059 7.321336 -7.356831 0.000001 -44.427898 -2.982199 7.784178 2.641990 5.700925 0.000000 -8.728700 10.710600 -15.814055 0.030699 -1.738237 0.000000 -0.000700 9.278098 0.000000 0.000001 -0.000000 -8.207799 -6.751704 -1.599599 -10.099927 -2.505435 4.436305 0.000001 -44.370502 0.286201 25.571344 0.740950 1.996394 0.000002 -44.427700 -2.983803 -10.441343 1.723336 -10.845815 -0.000000 -8.728700 10.710598 -0.978142 -0.027737 1.658028 -0.000000 -0.000700 9.278100 -0.000000 0.000000 -0.000000 
-3.677112 101.802399 3.735904 -2.512589 -0.937876 -1.188482 -0.000000 10.181598 0.131499 0.434676 2.856018 1.929372 -0.000000 10.083500 -1.000800 0.144136 1.996668 1.000082 -0.000000 9.100012 -1.373400 0.149936 2.022021 0.977524 0.000002 16.671724 -2.516199 -1.721706 -0.595473 -1.179444 0.000000 9.617907 1.684998 -11.850338 -2.711994 -4.108446 -0.000000 17.815216 2.584996 -0.000001 -0.000000 -0.000000 3.067600 6.409500 9.283591 -0.000001 -0.000000 -0.000000 -3.067600 6.409515 9.283498 -0.000001 -0.000000 -0.000000 4.570400 10.945985 -2.628000 2.304022 -12.820317 -9.894746 10.592409 -0.524577 -2.232100 8.542530 -13.920118 -62.690570 27.841503 0.000000 0.000002 0.000002 -10.408346 -0.000003 28.328791 0.000004 -0.000004 -11.849669 3.651562 6.243604 2.466094 -1.576221 2.681687 6.277218 16.289412 13.440165 3.229787 -1.864710 1.864718 8.903342 12.226822 -1.301470 2.652612 -1.531481 1.531483 1.871008 3.746216 1.882181 1.954591 -1.128482 1.128492 -0.000002 0.000000 0.000006 9.109300 -0.518136 2.259866 0.141745 1.392703 -11.622249 3.676395 -0.000016 -0.000002 0.083767 1.072946 -8.927917 2.883112 0.000014 -0.000000 0.020974 0.538103 -4.463576 2.392685 0.000000 0.000000 0.000000 -0.000000 0.000000 9.533393 -0.000000 0.000001 0.141360 1.390813 -11.606254 3.698199 -0.000014 -0.000001 0.084067 1.074853 -8.943896 2.950908 0.000006 0.000000 0.020974 0.538102 -4.463582 2.833909 0.000000 0.000000 0.000001 -0.000000 -0.000000 9.104490 -0.043071 -1.865119 0.141745 1.392701 -11.622250 3.154004 0.000000 0.000002 0.083766 1.072947 -8.927916 2.937705 0.000003 -0.000001 0.020975 0.538104 -4.463576 2.647499 0.000000 -0.000000 0.000001 -0.000000 0.000000 8.077779 -0.486977 -3.806321 0.943697 5.367207 -11.159123 3.599999 -0.000014 -0.000000 0.075358 -2.982093 -9.432463 2.114203 0.000006 0.000002 0.020972 0.538106 -4.463565 1.975708 0.000015 0.000001 0.000000 -0.000000 0.000000 -4.570000 10.946198 -2.628000 0.908351 -0.161874 11.321097 -10.592800 -0.524764 -2.232102 22.931961 28.713258 47.728669 -27.841496 -0.000004 0.000003 -0.000012 33.820440 0.000011 -28.328800 0.000003 -0.000004 -24.715449 5.001420 -17.393109 -8.076697 -0.486730 -3.806224 0.065105 -0.951197 7.830389 -3.600013 -0.000011 -0.000000 0.180038 -1.575119 13.040336 -2.114198 -0.000021 -0.000006 0.045141 -0.792685 6.518950 -1.975721 -0.000001 -0.000006 0.000003 -0.000001 -0.000001 -9.103607 -0.043028 -1.865118 0.065103 -0.951196 7.830394 -3.153998 0.000000 -0.000003 0.180044 -1.575122 13.040328 -2.937699 -0.000005 -0.000000 0.045141 -0.792684 6.518949 -2.647501 0.000002 -0.000003 -0.000002 0.000002 0.000001 -9.532503 -0.000010 0.000002 0.065102 -0.951199 7.830393 -3.698209 -0.000007 0.000007 0.180042 -1.575121 13.040330 -2.950898 -0.000014 -0.000001 0.045141 -0.792688 6.518946 -2.833895 -0.000030 -0.000005 0.000002 0.000001 0.000001 -9.108297 -0.517835 2.259864 0.065102 -0.951199 7.830394 -3.676400 -0.000006 0.000003 0.180043 -1.575122 13.040330 -2.883098 -0.000006 -0.000002 0.045140 -0.792684 6.518948 -2.392695 0.000000 0.000005 0.000002 0.000000 0.000001 -2.464804 -1.573933 2.681871 7.209044 -23.606986 -7.406012 -3.229773 -1.864702 1.864717 6.867247 -11.189099 1.266675 -2.652545 -1.531461 1.531448 -0.189205 -1.164789 -1.546951 -1.954614 -1.128506 1.128494 0.000003 0.000001 0.000001 8.207799 -6.751713 -1.599598 -25.875270 -4.275901 2.617003 0.000000 -44.370506 0.284595 41.881070 8.285119 -7.631365 0.000000 -44.427902 -2.982201 7.187563 3.950079 5.386845 -0.000000 -8.728697 10.710598 -11.820150 0.045712 -2.125020 -0.000000 -0.000700 9.278098 0.000001 0.000000 -0.000000 -8.207800 -6.751709 -1.599601 -8.282639 -2.916367 4.843391 0.000000 -44.370491 0.286200 24.455171 0.394206 1.179617 0.000001 -44.427704 -2.983802 -12.383954 2.089691 -11.752357 0.000000 -8.728700 10.710599 -0.515769 -0.007141 0.841326 -0.000000 -0.000700 9.278102 0.000000 -0.000000 0.000000 
-3.532043 101.824471 5.848191 -2.200694 -0.813531 -1.205393 -0.000000 10.181602 0.131501 0.293208 3.136682 2.247679 0.000000 10.083507 -1.000799 0.036955 2.228546 1.048715 -0.000000 9.100011 -1.373401 0.039516 2.252681 1.019929 0.000001 16.671690 -2.516199 -1.526576 -0.680364 -1.222569 -0.000000 9.617908 1.685003 -11.912949 -3.199586 -4.120715 0.000000 17.815216 2.585000 0.000002 -0.000000 0.000000 3.067600 6.409515 9.283596 0.000002 -0.000000 0.000000 -3.067599 6.409530 9.283503 0.000002 -0.000000 0.000000 4.570401 10.946007 -2.628000 2.368620 -13.263856 -9.913789 10.592405 -0.524610 -2.232098 9.155432 -13.627737 -62.384749 27.841480 -0.000006 -0.000003 0.000002 -11.504180 0.000008 28.328787 0.000000 0.000001 -11.673143 3.701301 5.784645 2.466079 -1.576196 2.681686 6.277218 16.289412 13.440165 3.229778 -1.864712 1.864716 8.903343 12.226825 -1.301467 2.652608 -1.531469 1.531493 1.871008 3.746214 1.882189 1.954603 -1.128465 1.128495 0.000003 -0.000003 0.000001 9.109288 -0.518105 2.259865 0.141744 1.392704 -11.622249 3.676385 0.000014 0.000000 0.083768 1.072946 -8.927917 2.883103 -0.000002 -0.000000 0.020974 0.538103 -4.463576 2.392685 0.000000 0.000000 0.000001 0.000000 -0.000000 9.533391 0.000003 -0.000001 0.141358 1.390814 -11.606255 3.698209 -0.000015 -0.000000 0.084065 1.074853 -8.943898 2.950907 -0.000007 -0.000000 0.020973 0.538103 -4.463582 2.833909 -0.000015 0.000001 0.000001 -0.000000 -0.000000 9.104492 -0.043067 -1.865121 0.141745 1.392702 -11.622246 3.154001 -0.000000 0.000000 0.083767 1.072947 -8.927914 2.937698 0.000003 -0.000002 0.020973 0.538104 -4.463576 2.647492 0.000000 -0.000001 -0.000000 0.000000 -0.000000 8.077769 -0.486977 -3.806319 0.943696 5.367207 -11.159122 3.599992 -0.000011 0.000000 0.075360 -2.982094 -9.432463 2.114179 0.000007 -0.000001 0.020972 0.538106 -4.463565 1.975699 0.000015 0.000001 0.000000 0.000000 0.000000 -4.569999 10.946204 -2.627999 0.899177 -0.278720 11.412734 -10.592795 -0.524777 -2.232102 23.419882 29.160089 46.512168 -27.841499 0.000001 0.000001 -0.000001 34.832302 -0.000002 -28.328794 -0.000001 0.000001 -24.917198 4.949315 -17.826211 -8.076690 -0.486734 -3.806223 0.065105 -0.951197 7.830386 -3.599995 -0.000010 0.000005 0.180042 -1.575113 13.040334 -2.114203 -0.000007 0.000001 0.045140 -0.792680 6.518951 -1.975706 -0.000001 -0.000002 -0.000001 0.000002 -0.000001 -9.103601 -0.043033 -1.865118 0.065102 -0.951191 7.830390 -3.153998 -0.000013 -0.000008 0.180044 -1.575122 13.040328 -2.937701 -0.000004 0.000004 0.045144 -0.792682 6.518950 -2.647496 -0.000001 -0.000003 0.000000 0.000000 -0.000001 -9.532504 0.000013 0.000005 0.065099 -0.951194 7.830389 -3.698209 -0.000015 0.000002 0.180042 -1.575124 13.040329 -2.950885 -0.000026 -0.000003 0.045139 -0.792685 6.518948 -2.833900 -0.000016 0.000000 0.000002 -0.000002 -0.000000 -9.108303 -0.517843 2.259862 0.065100 -0.951194 7.830390 -3.676407 -0.000006 0.000002 0.180044 -1.575124 13.040329 -2.883102 0.000013 -0.000004 0.045140 -0.792684 6.518951 -2.392700 0.000001 0.000004 0.000002 -0.000002 -0.000000 -2.464791 -1.573938 2.681874 7.209047 -23.606980 -7.406010 -3.229790 -1.864710 1.864715 6.867249 -11.189098 1.266679 -2.652528 -1.531454 1.531448 -0.189206 -1.164789 -1.546955 -1.954601 -1.128504 1.128494 -0.000000 0.000001 -0.000002 8.207799 -6.751701 -1.599596 -26.753824 -5.887387 2.273522 -0.000001 -44.370495 0.284598 36.762161 8.889425 -7.651613 0.000001 -44.427898 -2.982199 6.929360 5.307084 5.023123 -0.000000 -8.728702 10.710601 -5.683337 0.041549 -2.029022 0.000000 -0.000700 9.278093 -0.000000 0.000001 -0.000000 -8.207801 -6.751694 -1.599599 -6.329741 -3.390743 5.196588 0.000000 -44.370483 0.286202 23.072306 0.230690 0.414645 0.000002 -44.427696 -2.983803 -14.201039 2.432131 -12.563419 0.000001 -8.728700 10.710601 -0.040384 0.000001 0.003214 0.000000 -0.000700 9.278099 0.000000 0.000000 0.000001 
